<svg width="1024" height="1024" viewBox="0 0 1024 1024" xmlns="http://www.w3.org/2000/svg">
  <defs>
    <linearGradient id="bg" x1="512" y1="0" x2="512" y2="1024" gradientUnits="userSpaceOnUse">
      <stop offset="0%" stop-color="#ff4f8b"/>
      <stop offset="55%" stop-color="#ff2f5f"/>
      <stop offset="100%" stop-color="#f4142f"/>
    </linearGradient>

    <filter id="softShadow" x="-20%" y="-20%" width="140%" height="140%">
      <feDropShadow dx="0" dy="18" stdDeviation="22" flood-color="#9a0018" flood-opacity="0.18"/>
    </filter>
  </defs>

  <!-- Background -->
  <rect x="20" y="20" width="984" height="984" rx="190" fill="url(#bg)"/>

  <!-- Music Note (moved upward) -->
  <g fill="#ffffff" filter="url(#softShadow)" transform="translate(0,-60)">
    <path d="M690 194c18-4 35 10 35 29v322c0 55-49 100-109 100c-51 0-91-30-91-72s40-72 91-72c25 0 48 8 66 21V322L446 371v235c0 55-49 100-109 100c-51 0-91-30-91-72s40-72 91-72c25 0 48 8 66 21V281c0-15 11-28 26-31l261-56z"/>
  </g>

  <!-- Lyrics Lines -->
  <g stroke-linecap="round" filter="url(#softShadow)">
    <line x1="330" y1="720" x2="694" y2="720" stroke="#ffadc3" stroke-width="40" opacity="0.72"/>
    <line x1="230" y1="800" x2="794" y2="800" stroke="#ffffff" stroke-width="40"/>
    <line x1="360" y1="880" x2="664" y2="880" stroke="#ffadc3" stroke-width="40" opacity="0.82"/>
  </g>
</svg>
